PathFileType  4	(X/Y/Z) C:\Users\antoi\Documents\MyRepositories\mobilecap\ResultsAnalysis
DataRate	CameraRate	NumFrames	NumMarkers	Units	OrigDataRate	OrigDataStartFrame	OrigNumFrames
100.0	100.0	7	51	mm	100.0	16	125
Frame#	Time	r_knee			r_shank_antsup			r_ankle			r_calc			r_5meta			r_toe			L_knee			L_shank_antsup			L_ankle			L_calc			L_5meta			L_toe			r_sh2			r_sh3			r_sh4			L_sh2			L_sh3			r_thigh1			r_thigh2			r_thigh3			r_thigh4			r_thigh5			L_thigh1			L_thigh2			L_thigh3			L_thigh4			r.ASIS			r.PSIS			L.ASIS			L.PSIS			C7			R_Shoulder			L_Shoulder			R_Sternum			L_Sternum			R_humerus			R_elbow_med			R_elbow_lat			R_forearm			R_wrist_radius			R_wrist_ulna			L_humerus			L_elbow_med			L_elbow_lat			L_forearm			L_wrist_radius			L_wrist_ulna			R_HJC			L_HJC			R_HJC_reg			L_HJC_reg			
		X1	Y1	Z1	X2	Y2	Z2	X3	Y3	Z3	X4	Y4	Z4	X5	Y5	Z5	X6	Y6	Z6	X7	Y7	Z7	X8	Y8	Z8	X9	Y9	Z9	X10	Y10	Z10	X11	Y11	Z11	X12	Y12	Z12	X13	Y13	Z13	X14	Y14	Z14	X15	Y15	Z15	X16	Y16	Z16	X17	Y17	Z17	X18	Y18	Z18	X19	Y19	Z19	X20	Y20	Z20	X21	Y21	Z21	X22	Y22	Z22	X23	Y23	Z23	X24	Y24	Z24	X25	Y25	Z25	X26	Y26	Z26	X27	Y27	Z27	X28	Y28	Z28	X29	Y29	Z29	X30	Y30	Z30	X31	Y31	Z31	X32	Y32	Z32	X33	Y33	Z33	X34	Y34	Z34	X35	Y35	Z35	X36	Y36	Z36	X37	Y37	Z37	X38	Y38	Z38	X39	Y39	Z39	X40	Y40	Z40	X41	Y41	Z41	X42	Y42	Z42	X43	Y43	Z43	X44	Y44	Z44	X45	Y45	Z45	X46	Y46	Z46	X47	Y47	Z47	X48	Y48	Z48	X49	Y49	Z49	X50	Y50	Z50	X51	Y51	Z51	

16	0.15000000	159.16566	460.07772	-131.39592	176.77737	386.44705	-113.97609	157.57366	89.31795	-175.58135	88.69788	58.14497	-213.11144	261.50346	45.63170	-152.17219	302.83339	67.63072	-208.45232	-68.61759	428.74509	-399.55263	-101.08931	365.90081	-401.54759	-368.30402	225.35819	-324.76743	-401.42539	280.29653	-266.18891	-404.20584	117.23257	-336.72252	-352.45141	77.26640	-297.71518	180.60228	274.23149	-120.94267	101.53404	383.28830	-120.05786	97.65807	268.42636	-131.61355	-147.13419	443.37133	-398.34062	-245.04743	372.40793	-381.39800	121.00339	774.66908	-116.88422	165.18937	669.65156	-119.58717	130.13703	631.98443	-73.86355	35.74610	739.71425	-48.90462	72.43032	630.85126	-66.51456	30.41179	705.26480	-412.38854	23.86395	568.35287	-421.58699	-88.03355	710.06891	-411.82918	-84.17032	568.63663	-405.67766	81.02846	895.82431	-122.38858	-110.66385	898.02008	-177.45565	53.22936	877.48152	-379.41510	-123.28378	890.96966	-283.38725	-51.97159	1369.11436	-219.02191	10.47611	1302.47382	-67.83794	5.52942	1315.87019	-383.28007	61.75969	1277.89371	-204.76251	60.48229	1279.38106	-249.09746	-6.30542	1060.87756	3.02249	-64.36041	965.94542	-53.72528	-48.84368	982.07169	15.57397	-19.18914	865.83848	41.11963	-20.60189	745.42873	51.26440	-66.20379	747.61697	53.49215	62.48092	1200.55636	-435.81590	41.93093	975.38463	-442.03468	64.45548	997.99883	-495.95114	164.84361	945.20653	-486.53136	248.38885	853.71830	-459.13878	232.45797	829.85710	-485.85782	16.39066	815.11359	-139.54941	-2.03675	804.73359	-338.70904	21.28833	806.53370	-146.41609	1.09225	795.26010	-315.89903	
17	0.16000000	165.43136	460.16363	-129.83136	181.64419	386.10406	-112.47761	157.71669	89.41217	-175.17666	88.77931	58.21210	-213.02852	261.46263	45.47682	-151.88190	302.97094	67.32771	-208.14520	-38.81561	429.06945	-401.96159	-71.30404	365.98865	-403.48283	-341.18655	232.34179	-325.86753	-374.05310	288.19520	-267.84220	-377.73109	125.19027	-338.37500	-327.13484	84.38083	-298.75836	183.65243	273.86384	-119.60630	106.43807	384.34039	-118.60180	100.52322	269.66129	-130.69940	-115.98242	444.20184	-401.43166	-215.12079	375.17835	-384.06873	133.59051	775.64426	-115.21004	175.97290	669.84359	-117.33448	139.66164	632.87905	-72.02546	47.41092	742.61527	-48.17410	81.67187	632.92303	-65.48280	50.33004	708.38767	-412.12804	48.56075	571.35796	-422.21926	-68.10699	709.41520	-412.56208	-59.50355	567.98137	-407.12091	94.67203	899.42927	-121.19472	-96.78838	901.15903	-178.04698	68.68275	880.39289	-378.09712	-108.71534	893.30833	-284.11452	-37.20718	1372.21216	-218.72489	25.45632	1305.72015	-67.84071	19.97020	1318.86314	-382.92384	76.43015	1280.78580	-204.63844	75.09599	1282.32498	-248.95699	12.42856	1063.84733	2.81489	-45.83226	968.55730	-52.71759	-29.05095	984.58351	16.08318	3.17426	868.61901	40.42015	3.69482	748.19005	50.04113	-41.95162	749.77011	53.60825	75.23615	1202.69358	-435.84538	51.21084	978.02145	-440.37062	73.20800	999.74089	-494.72780	172.24200	943.80280	-488.02356	252.83719	849.14670	-462.42482	235.39088	825.80065	-488.69337	30.16843	818.56190	-138.65930	13.43975	807.48686	-337.95203	35.13562	810.63708	-144.96470	16.08908	798.10601	-314.31843	
18	0.17000000	170.92355	460.16176	-128.68274	185.87119	385.79818	-111.47507	157.94432	89.49257	-174.87447	88.86204	58.30289	-212.96876	261.44018	45.38481	-151.66104	303.12500	67.02815	-207.96368	-8.91131	430.31331	-403.95803	-41.13938	366.59142	-404.88015	-312.87444	238.16699	-327.14858	-347.31172	294.25137	-270.10953	-347.70779	131.47967	-340.26848	-297.82520	91.17255	-299.57034	186.31701	273.56805	-118.68489	110.66387	385.24719	-117.63531	103.05042	270.74127	-130.11918	-84.80006	445.34064	-404.57057	-184.78904	377.79679	-386.93787	145.81744	776.35227	-113.68692	186.18339	669.72197	-115.39497	148.62303	633.54795	-70.51318	58.71903	745.38657	-47.64498	90.25823	634.79321	-64.76643	69.98548	712.06314	-411.71196	72.95416	575.08051	-422.48399	-48.23719	709.47469	-412.93915	-34.94337	568.08659	-408.17915	108.20372	902.81201	-120.23314	-83.01542	904.36578	-178.20450	83.77481	883.54355	-376.95421	-94.35365	895.94330	-284.34839	-22.62563	1375.40310	-218.60800	40.09669	1309.04561	-67.99046	34.05805	1321.99514	-382.81299	90.88731	1283.79494	-204.74939	89.48806	1285.39378	-249.06134	30.73672	1066.97447	2.52490	-27.67656	971.22092	-51.62122	-9.57747	987.23838	16.60573	25.63219	871.65128	39.59026	28.47211	751.28538	48.61278	-17.15490	752.04945	53.58454	87.66118	1204.98416	-436.15257	60.38975	980.87016	-438.58954	81.73846	1001.67859	-493.43890	178.98605	942.45897	-489.56835	256.59453	844.71315	-465.98194	237.51929	821.95203	-491.59663	43.88216	821.88326	-137.86709	28.41451	810.48663	-337.25647	48.77475	814.59149	-143.85923	30.70230	801.16723	-313.04275	
19	0.18000000	175.86590	460.16738	-127.94209	189.61637	385.59852	-110.94314	158.22981	89.59546	-174.67426	88.94771	58.42330	-212.92628	261.43510	45.34211	-151.49092	303.28319	66.69730	-207.90360	21.03477	432.43075	-405.54914	-10.67609	367.73043	-405.78628	-283.51671	242.62850	-328.65864	-320.85663	298.46907	-272.92238	-314.93634	135.93471	-342.27668	-265.30450	97.16520	-300.19684	188.65221	273.39310	-118.15711	114.35268	386.12570	-117.17401	105.29786	271.76513	-129.88608	-53.69149	446.79201	-407.68189	-154.18944	380.21855	-389.93559	157.73765	776.94990	-112.45426	195.93638	669.44287	-113.93726	157.20553	634.12176	-69.44348	69.78206	748.04122	-47.29807	98.45952	636.55686	-64.34299	89.45559	716.26272	-411.10607	97.08522	579.50033	-422.38511	-28.39510	710.22859	-412.96393	-10.47488	568.93290	-408.94954	121.62018	905.88842	-119.44856	-69.31869	907.62184	-177.96675	98.55854	886.93871	-375.97419	-80.17948	898.86461	-284.13205	-8.21758	1378.66180	-218.64776	54.43975	1312.38948	-68.25837	47.81274	1325.22075	-382.95757	105.12948	1286.90724	-205.06987	103.67094	1288.57052	-249.38500	48.60297	1070.19814	2.18826	-9.87656	973.87114	-50.45797	9.59901	989.97501	17.14990	48.11069	874.88822	38.62150	53.60667	754.67849	46.94955	8.10112	754.43767	53.37318	99.78160	1207.35290	-436.74344	69.49551	983.83553	-436.74474	90.05834	1003.74826	-492.13492	185.16901	941.20486	-491.19336	259.74346	840.47515	-469.81885	238.94552	818.36098	-494.53127	57.51628	825.01388	-137.18449	42.92941	813.73028	-336.64906	62.21513	818.36012	-143.05332	44.92885	804.41788	-312.05155	
20	0.19000000	180.40974	460.22346	-127.51869	192.96917	385.52605	-110.75108	158.54338	89.74078	-174.55074	89.04157	58.57509	-212.89516	261.44296	45.33615	-151.34687	303.43602	66.33851	-207.92890	50.94941	435.31806	-406.74556	20.03516	369.40100	-406.25461	-253.25705	245.60503	-330.39892	-294.26216	300.85182	-276.13126	-280.25163	138.57435	-344.30744	-230.45592	102.01195	-300.72782	190.67263	273.34767	-117.90956	117.61733	387.03271	-117.15246	107.28297	272.79662	-129.96616	-22.75402	448.49536	-410.69237	-123.42836	382.31218	-393.01484	169.39600	777.55177	-111.62797	205.32764	669.12732	-113.05513	165.56538	634.69019	-68.85548	80.70322	750.59314	-47.09167	106.53177	638.29837	-64.15045	108.79245	720.93827	-410.31564	120.99490	584.56556	-421.94819	-8.57371	711.58804	-412.72605	13.91680	570.46689	-409.54944	134.90708	908.62296	-118.76841	-55.68515	910.90456	-177.43469	113.09973	890.55869	-375.11206	-66.17237	902.03118	-283.58112	6.03837	1381.95238	-218.81694	68.52843	1315.71154	-68.61970	61.27268	1328.48914	-383.34697	119.17106	1290.10893	-205.56585	117.67108	1291.83597	-249.89546	66.03118	1073.48203	1.83988	7.60552	976.47484	-49.25416	28.52431	992.75731	17.71545	70.53143	878.30970	37.50790	78.97139	758.34967	45.02234	33.72129	756.95180	52.94126	111.62425	1209.72679	-437.59830	78.54474	986.82954	-434.89078	98.18379	1005.89232	-490.85960	190.89633	940.07407	-492.91256	262.37990	836.47027	-473.91989	239.78250	815.07533	-497.46436	71.03700	827.92180	-136.61399	57.06487	817.19022	-336.14686	75.46702	821.93705	-142.46936	58.79222	807.82178	-311.28368	
21	0.20000000	184.64882	460.33125	-127.28369	195.98488	385.56236	-110.71983	158.86669	89.93112	-174.46647	89.14713	58.75848	-212.86839	261.46331	45.35277	-151.20935	303.58047	65.97527	-207.98776	80.73367	438.83960	-407.55338	50.94650	371.58077	-406.32832	-222.23294	247.06881	-332.32932	-267.17102	301.40768	-279.54448	-244.34260	139.54318	-346.32355	-194.06008	105.52941	-301.28034	192.39301	273.40921	-117.78874	120.56453	387.97109	-117.45351	109.02368	273.86070	-130.28678	7.90699	450.34939	-413.53364	-92.58533	383.89702	-396.13271	180.82991	778.20096	-111.25867	214.43925	668.84635	-112.74483	173.81737	635.29386	-68.70432	91.56347	753.05035	-46.97785	114.66902	640.06684	-64.10798	128.01249	726.02081	-409.38029	144.70756	590.19397	-421.21537	11.21323	713.41606	-412.37956	38.23367	572.60872	-410.09065	148.05656	911.02429	-118.12975	-42.11211	914.18476	-176.74480	127.46259	894.35123	-374.31173	-52.30502	905.37167	-282.85438	20.17346	1385.22460	-219.08659	82.40554	1318.99032	-69.05314	74.48894	1331.74289	-383.94525	133.04453	1293.37514	-206.19884	131.52642	1295.15842	-250.55511	83.04734	1076.81149	1.50941	24.82139	979.02972	-48.03591	47.24657	995.57475	18.29613	92.81448	881.92071	36.24949	104.44299	762.30091	42.80849	59.59682	759.63815	52.27430	123.21437	1212.04067	-438.67450	87.54108	989.78252	-433.08159	106.14145	1008.06322	-489.64797	196.26058	939.09108	-494.71604	264.58331	832.72283	-478.22858	240.14239	812.13857	-500.37171	84.41207	830.60328	-136.15409	70.92236	820.80950	-335.75851	88.54114	825.33719	-142.02704	72.34604	811.32769	-310.66494	
22	0.21000000	188.65220	460.47313	-127.11683	198.72837	385.67118	-110.68769	159.19895	90.16026	-174.38469	89.26062	58.97292	-212.83735	261.50193	45.37682	-151.06985	303.71840	65.63283	-208.03199	110.26158	442.85366	-407.97708	81.98150	374.23297	-406.04039	-190.56670	247.07272	-334.39059	-239.36731	300.15812	-282.97611	-207.64920	139.04557	-348.34218	-156.67985	107.68111	-301.97192	193.86413	273.54374	-117.65873	123.31168	388.91670	-117.94032	110.57366	274.95508	-130.74970	38.17229	452.24732	-416.14305	-61.72785	384.80789	-399.22410	192.08180	778.86806	-111.30635	223.35140	668.61920	-112.90516	182.03621	635.93169	-68.87846	102.41637	755.41203	-46.91846	122.97086	641.86799	-64.13881	147.10134	731.41893	-408.35635	168.22255	596.27634	-420.23537	30.93938	715.55710	-412.09976	62.45851	575.25734	-410.66018	161.07866	913.13441	-117.49492	-28.60478	917.42576	-176.03916	141.70313	898.23628	-373.52562	-38.54316	908.79186	-282.11828	34.21968	1388.41790	-219.43084	96.11518	1322.21688	-69.54020	87.52033	1334.91873	-384.69383	146.79566	1296.66224	-206.92873	145.28002	1298.48692	-251.32221	99.69720	1080.18384	1.21944	41.83300	981.55278	-46.82915	65.79629	998.43521	18.88421	114.88943	885.73896	34.85769	129.90643	766.55376	40.30524	85.60622	762.55826	51.37509	134.57993	1214.24065	-439.91221	96.47759	992.64744	-431.36775	113.97064	1010.22162	-488.52615	201.33265	938.26391	-496.57658	266.39481	829.25439	-482.64189	240.12748	809.58104	-503.24085	97.62654	833.07515	-135.80261	84.60816	824.50712	-335.48587	101.45185	828.58457	-141.66357	85.67185	814.87015	-310.13153	
